<svg xmlns="http://www.w3.org/2000/svg" enable-background="new 0 0 512 512" viewBox="0 0 512 512"><path fill="#ffffff" d="M425.9 130.2H86.1c-25.5 0-46.2-20.7-46.2-46.2v0c0-25.5 20.7-46.2 46.2-46.2h339.9c25.5 0 46.2 20.7 46.2 46.2v0C472.1 109.5 451.4 130.2 425.9 130.2zM350.9 302.2H161.1c-25.5 0-46.2-20.7-46.2-46.2v0c0-25.5 20.7-46.2 46.2-46.2h189.9c25.5 0 46.2 20.7 46.2 46.2v0C397.1 281.5 376.4 302.2 350.9 302.2zM425.9 474.2H86.1c-25.5 0-46.2-20.7-46.2-46.2v0c0-25.5 20.7-46.2 46.2-46.2h339.9c25.5 0 46.2 20.7 46.2 46.2v0C472.1 453.5 451.4 474.2 425.9 474.2z" class="color231f20 svgShape"></path></svg>